<mxfile host="app.diagrams.net" modified="2023-09-19T01:00:19.637Z" agent="Mozilla/5.0 (Windows NT 10.0; Win64; x64) AppleWebKit/537.36 (KHTML, like Gecko) Chrome/116.0.0.0 Safari/537.36" etag="J7lwqPnKBEGSmuCNQHDq" version="21.7.5" type="device">
  <diagram name="Page-1" id="5f0bae14-7c28-e335-631c-24af17079c00">
    <mxGraphModel dx="1434" dy="782" grid="1" gridSize="10" guides="1" tooltips="1" connect="1" arrows="1" fold="1" page="1" pageScale="1" pageWidth="1100" pageHeight="850" background="none" math="0" shadow="0">
      <root>
        <mxCell id="0" />
        <mxCell id="1" parent="0" />
        <mxCell id="39150e848f15840c-1" value="Servidor API" style="verticalAlign=top;align=left;spacingTop=8;spacingLeft=2;spacingRight=12;shape=cube;size=10;direction=south;fontStyle=4;html=1;rounded=0;shadow=0;comic=0;labelBackgroundColor=none;strokeWidth=1;fontFamily=Verdana;fontSize=12" parent="1" vertex="1">
          <mxGeometry x="20" y="20" width="410" height="280" as="geometry" />
        </mxCell>
        <mxCell id="39150e848f15840c-2" value="Servidor WEB" style="verticalAlign=top;align=left;spacingTop=8;spacingLeft=2;spacingRight=12;shape=cube;size=10;direction=south;fontStyle=4;html=1;rounded=0;shadow=0;comic=0;labelBackgroundColor=none;strokeWidth=1;fontFamily=Verdana;fontSize=12" parent="1" vertex="1">
          <mxGeometry x="560" y="30" width="360" height="260" as="geometry" />
        </mxCell>
        <mxCell id="39150e848f15840c-3" value="Cliente-WEB" style="verticalAlign=top;align=left;spacingTop=8;spacingLeft=2;spacingRight=12;shape=cube;size=10;direction=south;fontStyle=4;html=1;rounded=0;shadow=0;comic=0;labelBackgroundColor=none;strokeWidth=1;fontFamily=Verdana;fontSize=12" parent="1" vertex="1">
          <mxGeometry x="370" y="410" width="260" height="150" as="geometry" />
        </mxCell>
        <mxCell id="ijIQZzlzKAv-28QeZxQK-7" style="edgeStyle=orthogonalEdgeStyle;rounded=0;orthogonalLoop=1;jettySize=auto;html=1;dashed=1;" parent="1" source="39150e848f15840c-5" target="ijIQZzlzKAv-28QeZxQK-5" edge="1">
          <mxGeometry relative="1" as="geometry">
            <Array as="points">
              <mxPoint x="105" y="150" />
              <mxPoint x="200" y="150" />
            </Array>
          </mxGeometry>
        </mxCell>
        <mxCell id="39150e848f15840c-5" value="&amp;lt;&amp;lt;Componente&amp;gt;&amp;gt;&lt;br&gt;Back-end : Java" style="shape=component;align=left;spacingLeft=36;rounded=0;shadow=0;comic=0;labelBackgroundColor=none;strokeWidth=1;fontFamily=Verdana;fontSize=12;html=1;" parent="1" vertex="1">
          <mxGeometry x="30" y="70" width="170" height="60" as="geometry" />
        </mxCell>
        <mxCell id="ijIQZzlzKAv-28QeZxQK-10" style="edgeStyle=orthogonalEdgeStyle;rounded=0;orthogonalLoop=1;jettySize=auto;html=1;dashed=1;" parent="1" source="39150e848f15840c-7" target="ijIQZzlzKAv-28QeZxQK-9" edge="1">
          <mxGeometry relative="1" as="geometry" />
        </mxCell>
        <mxCell id="39150e848f15840c-7" value="&amp;lt;&amp;lt;Componentes&amp;gt;&amp;gt;&lt;br&gt;Front-end : HTML, CSS" style="shape=component;align=left;spacingLeft=36;rounded=0;shadow=0;comic=0;labelBackgroundColor=none;strokeWidth=1;fontFamily=Verdana;fontSize=12;html=1;" parent="1" vertex="1">
          <mxGeometry x="640" y="80" width="190" height="60" as="geometry" />
        </mxCell>
        <mxCell id="39150e848f15840c-10" value="&amp;lt;&amp;lt;Componente&amp;gt;&amp;gt;&lt;br&gt;Chrome: Navegador Web" style="shape=component;align=left;spacingLeft=36;rounded=0;shadow=0;comic=0;labelBackgroundColor=none;strokeWidth=1;fontFamily=Verdana;fontSize=12;html=1;" parent="1" vertex="1">
          <mxGeometry x="390" y="470" width="210" height="60" as="geometry" />
        </mxCell>
        <mxCell id="ijIQZzlzKAv-28QeZxQK-1" value="HTTPS" style="text;html=1;align=center;verticalAlign=middle;resizable=0;points=[];autosize=1;strokeColor=none;fillColor=none;" parent="1" vertex="1">
          <mxGeometry x="320" y="350" width="60" height="30" as="geometry" />
        </mxCell>
        <mxCell id="ijIQZzlzKAv-28QeZxQK-3" value="HTTPS" style="text;html=1;align=center;verticalAlign=middle;resizable=0;points=[];autosize=1;strokeColor=none;fillColor=none;" parent="1" vertex="1">
          <mxGeometry x="680" y="338" width="60" height="30" as="geometry" />
        </mxCell>
        <mxCell id="ijIQZzlzKAv-28QeZxQK-8" style="edgeStyle=orthogonalEdgeStyle;rounded=0;orthogonalLoop=1;jettySize=auto;html=1;dashed=1;" parent="1" source="ijIQZzlzKAv-28QeZxQK-4" target="ijIQZzlzKAv-28QeZxQK-5" edge="1">
          <mxGeometry relative="1" as="geometry">
            <Array as="points">
              <mxPoint x="315" y="150" />
              <mxPoint x="240" y="150" />
            </Array>
          </mxGeometry>
        </mxCell>
        <mxCell id="ijIQZzlzKAv-28QeZxQK-4" value="&amp;lt;&amp;lt;Componente&amp;gt;&amp;gt;&lt;br&gt;SGBD : PostgreSQL" style="shape=component;align=left;spacingLeft=36;rounded=0;shadow=0;comic=0;labelBackgroundColor=none;strokeWidth=1;fontFamily=Verdana;fontSize=12;html=1;" parent="1" vertex="1">
          <mxGeometry x="240" y="70" width="170" height="60" as="geometry" />
        </mxCell>
        <mxCell id="ijIQZzlzKAv-28QeZxQK-5" value="&amp;lt;&amp;lt;Componente&amp;gt;&amp;gt;&lt;br&gt;OS : Linux Ubuntu Server" style="shape=component;align=left;spacingLeft=36;rounded=0;shadow=0;comic=0;labelBackgroundColor=none;strokeWidth=1;fontFamily=Verdana;fontSize=12;html=1;" parent="1" vertex="1">
          <mxGeometry x="110" y="200" width="210" height="60" as="geometry" />
        </mxCell>
        <mxCell id="ijIQZzlzKAv-28QeZxQK-9" value="&amp;lt;&amp;lt;Componente&amp;gt;&amp;gt;&lt;br&gt;OS : Linux Ubuntu Server" style="shape=component;align=left;spacingLeft=36;rounded=0;shadow=0;comic=0;labelBackgroundColor=none;strokeWidth=1;fontFamily=Verdana;fontSize=12;html=1;" parent="1" vertex="1">
          <mxGeometry x="620" y="200" width="210" height="60" as="geometry" />
        </mxCell>
        <mxCell id="ijIQZzlzKAv-28QeZxQK-11" value="" style="endArrow=none;dashed=1;html=1;rounded=0;" parent="1" source="39150e848f15840c-3" target="39150e848f15840c-1" edge="1">
          <mxGeometry width="50" height="50" relative="1" as="geometry">
            <mxPoint x="410" y="420" as="sourcePoint" />
            <mxPoint x="460" y="370" as="targetPoint" />
          </mxGeometry>
        </mxCell>
        <mxCell id="ijIQZzlzKAv-28QeZxQK-12" value="" style="endArrow=none;dashed=1;html=1;rounded=0;entryX=0;entryY=0;entryDx=260;entryDy=185;entryPerimeter=0;exitX=-0.027;exitY=0.086;exitDx=0;exitDy=0;exitPerimeter=0;" parent="1" source="39150e848f15840c-3" target="39150e848f15840c-2" edge="1">
          <mxGeometry width="50" height="50" relative="1" as="geometry">
            <mxPoint x="720" y="410" as="sourcePoint" />
            <mxPoint x="770" y="360" as="targetPoint" />
          </mxGeometry>
        </mxCell>
      </root>
    </mxGraphModel>
  </diagram>
</mxfile>
